<?xml version="1.0" encoding="utf-8"?><svg xml:space="preserve" viewBox="0 0 100 100" y="0" x="0" xmlns="http://www.w3.org/2000/svg" id="圖層_1" version="1.1" width="200px" height="200px" xmlns:xlink="http://www.w3.org/1999/xlink" style="width:100%;height:100%;background-size:initial;background-repeat:initial;background-position-y:initial;background-position-x:initial;background-origin:initial;background-image:initial;background-color:rgb(255, 255, 255);background-clip:initial;background-attachment:initial;animation-play-state:paused" ><g class="ldl-scale" style="transform-origin:50% 50%;transform:rotate(0deg) scale(0.8, 0.8);animation-play-state:paused" ><circle fill="#333" r="40" cy="50" cx="50" style="fill:rgb(51, 51, 51);animation-play-state:paused" ></circle>
<path fill="#fff" d="M64.424 23.448a5.04 5.04 0 0 0-6.878 1.843l-2.431 4.212-20.4 35.333a.756.756 0 0 0-.095.285v.001l-.976 8.196a.75.75 0 0 0 .369.738l.246.142-1.099 1.904a.749.749 0 1 0 1.297.749l1.099-1.904.247.142a.75.75 0 0 0 .823-.048l6.61-4.943.003-.004a.763.763 0 0 0 .197-.222l17.756-30.755.917 2.271-6.013 10.415a.748.748 0 0 0 .648 1.124.746.746 0 0 0 .649-.375l6.196-10.731a.748.748 0 0 0 .046-.655l-1.493-3.696 1.693-2.932 2.432-4.212a5.04 5.04 0 0 0-1.843-6.878z" style="fill:rgb(255, 255, 255);animation-play-state:paused" ></path>
<metadata xmlns:d="https://loading.io/stock/" style="animation-play-state:paused" ><d:name style="animation-play-state:paused" >ballpoint pen</d:name>
<d:tags style="animation-play-state:paused" >ballpoint pen,biro,ball pen,ink,write,edit,draw,sketch</d:tags>
<d:license style="animation-play-state:paused" >by</d:license>
<d:slug style="animation-play-state:paused" >loqmcf</d:slug></metadata></g><!-- generated by https://loading.io/ --></svg>